<?xml version="1.0" encoding="iso-8859-1"?>
<!-- Generator: Adobe Illustrator 19.0.0, SVG Export Plug-In . SVG Version: 6.00 Build 0)  -->
<svg version="1.1" id="Layer_1" xmlns="http://www.w3.org/2000/svg" xmlns:xlink="http://www.w3.org/1999/xlink" x="0px" y="0px"
	 viewBox="0 0 512.176 512.176" style="enable-background:new 0 0 512.176 512.176;" xml:space="preserve">
<g transform="translate(0 -1)">
	<path style="fill:#E39700;" d="M156.153,432.031L491.08,97.104l7.839-7.839c17.54-17.54,17.54-45.974,0-63.514L487.179,14.01
		c-17.346-17.346-45.471-17.346-62.817,0l-8.192,8.192L81.251,357.129L156.153,432.031z"/>
	<polygon style="fill:#F3EDBF;" points="455.771,132.413 380.869,57.511 418.315,20.056 493.226,94.958 	"/>
	<polygon style="fill:#FFCB43;" points="143.669,369.61 106.214,332.155 355.902,82.476 393.348,119.931 	"/>
	<polygon style="fill:#E0A370;" points="56.28,382.095 131.182,456.997 0.102,513.176 	"/>
	<polygon style="fill:#F3EDBF;" points="131.184,456.999 56.282,382.097 81.246,357.124 156.149,432.035 	"/>
</g>
<g>
</g>
<g>
</g>
<g>
</g>
<g>
</g>
<g>
</g>
<g>
</g>
<g>
</g>
<g>
</g>
<g>
</g>
<g>
</g>
<g>
</g>
<g>
</g>
<g>
</g>
<g>
</g>
<g>
</g>
</svg>
