<svg xmlns="http://www.w3.org/2000/svg" width="24.95" height="25" viewBox="0 0 24.95 25"><path d="M0,12.295a12.034,12.034,0,0,1,1-4.85A12.075,12.075,0,0,1,7.625.82a12.261,12.261,0,0,1,9.7,0A12.18,12.18,0,0,1,23.95,7.445a12.261,12.261,0,0,1,0,9.7,12.269,12.269,0,0,1-6.625,6.675,12.261,12.261,0,0,1-9.7,0A12.163,12.163,0,0,1,1,17.145a12.034,12.034,0,0,1-1-4.85Zm1.95,0a10.169,10.169,0,0,0,2.1,6.3A11.239,11.239,0,0,0,9.475,22.47v-2a2.433,2.433,0,0,1,1-2.175A7.176,7.176,0,0,1,9.3,18.12a5.907,5.907,0,0,1-2.175-.8Q4.85,15.945,4.85,12.345a4.5,4.5,0,0,1,1.25-3.2,4.206,4.206,0,0,1,.125-3.2h.5a2.056,2.056,0,0,1,.625.125,8.6,8.6,0,0,1,2.175,1.1,11.793,11.793,0,0,1,3-.4,12.081,12.081,0,0,1,3.025.4,10.651,10.651,0,0,1,1.825-1,2.71,2.71,0,0,1,1.15-.25l.3.025a4.366,4.366,0,0,1,.125,3.2,4.5,4.5,0,0,1,1.25,3.2,5.86,5.86,0,0,1-1.375,4.225,5.027,5.027,0,0,1-1.975,1.25,8.6,8.6,0,0,1-2.275.475A2.488,2.488,0,0,1,15.6,20.47v2a11.322,11.322,0,0,0,5.325-3.925,10.188,10.188,0,0,0,2.05-6.25,10.536,10.536,0,0,0-.825-4.1A10.637,10.637,0,0,0,12.475,1.77a10.632,10.632,0,0,0-4.1.85,10.992,10.992,0,0,0-3.35,2.225,11.6,11.6,0,0,0-2.25,3.35,10.536,10.536,0,0,0-.825,4.1Z" transform="translate(0 0.18)" fill="#fdfdfd"/></svg>