<svg xmlns="http://www.w3.org/2000/svg" width="25" height="25" viewBox="0 0 25 25"><path d="M23.214,2.25H1.78A1.793,1.793,0,0,0,0,4.052v21.4a1.793,1.793,0,0,0,1.78,1.8H23.214A1.8,1.8,0,0,0,25,25.448V4.052A1.8,1.8,0,0,0,23.214,2.25ZM7.556,23.679H3.85V11.748H7.561V23.679ZM5.7,10.118A2.148,2.148,0,1,1,7.852,7.97,2.149,2.149,0,0,1,5.7,10.118Zm15.742,13.56H17.74v-5.8c0-1.384-.028-3.164-1.925-3.164-1.931,0-2.227,1.507-2.227,3.064v5.9H9.883V11.748h3.555v1.629h.05A3.9,3.9,0,0,1,17,11.452c3.75,0,4.448,2.472,4.448,5.686Z" transform="translate(0 -2.25)" fill="#fdfdfd"/></svg>