<svg xmlns="http://www.w3.org/2000/svg" width="25" height="25" viewBox="0 0 25 25"><path d="M13.063.563a12.5,12.5,0,1,0,12.5,12.5A12.514,12.514,0,0,0,13.063.563Zm8.265,5.764a10.626,10.626,0,0,1,2.411,6.651,24.951,24.951,0,0,0-7.435-.344c-.29-.708-.564-1.33-.938-2.1A14.222,14.222,0,0,0,21.327,6.327ZM20.14,5.092a12.055,12.055,0,0,1-5.6,3.857A56.991,56.991,0,0,0,10.56,2.7a10.649,10.649,0,0,1,9.58,2.394ZM8.523,3.416a68.126,68.126,0,0,1,3.959,6.175,39.825,39.825,0,0,1-9.871,1.3A10.716,10.716,0,0,1,8.523,3.416ZM2.386,13.079c0-.109,0-.218.005-.326a39.385,39.385,0,0,0,10.973-1.519c.306.6.6,1.205.866,1.812a16.538,16.538,0,0,0-9.1,7.173A10.634,10.634,0,0,1,2.386,13.079ZM6.509,21.5c1.115-2.28,4.142-5.223,8.447-6.691a44.381,44.381,0,0,1,2.278,8.1A10.655,10.655,0,0,1,6.509,21.5Zm12.519.428a46.082,46.082,0,0,0-2.074-7.613,15.671,15.671,0,0,1,6.651.456,10.7,10.7,0,0,1-4.576,7.156Z" transform="translate(-0.563 -0.563)" fill="#fdfdfd"/></svg>