<svg xmlns="http://www.w3.org/2000/svg" width="30.781" height="25" viewBox="0 0 30.781 25"><path d="M27.617,9.611c.02.273.02.547.02.82,0,8.34-6.348,17.949-17.949,17.949A17.827,17.827,0,0,1,0,25.549a13.051,13.051,0,0,0,1.523.078,12.634,12.634,0,0,0,7.832-2.7,6.32,6.32,0,0,1-5.9-4.375,7.956,7.956,0,0,0,1.191.1,6.672,6.672,0,0,0,1.66-.215A6.309,6.309,0,0,1,1.25,12.248V12.17a6.353,6.353,0,0,0,2.852.8A6.318,6.318,0,0,1,2.148,4.533a17.932,17.932,0,0,0,13.008,6.6A7.122,7.122,0,0,1,15,9.689,6.315,6.315,0,0,1,25.918,5.373a12.42,12.42,0,0,0,4-1.523,6.292,6.292,0,0,1-2.773,3.477,12.647,12.647,0,0,0,3.633-.977,13.561,13.561,0,0,1-3.164,3.262Z" transform="translate(0 -3.381)" fill="#fdfdfd"/></svg>