<svg xmlns="http://www.w3.org/2000/svg" width="114.404" height="48.689" viewBox="0 0 114.404 48.689"><path d="M9.945,3.9q-.26.65-1.462.683A3.581,3.581,0,0,1,6.175,3.77a6.117,6.117,0,0,1-1.007-1.2q-.227-.423.227-1.43T6.955-2.4a14.76,14.76,0,0,1,.91-3.152Q8.515-7.15,8.84-7.8q.26-.91,1.073-3.023T11.8-15.535q1.072-2.6,2.047-4.908t1.43-3.477q1.105-2.6,2.275-5.46T20.735-36.6A1.76,1.76,0,0,0,20.7-37.96q-.293-.715-1.4-.715a2.532,2.532,0,0,1-.715-1.495,1.137,1.137,0,0,1,.65-1.17l5.07-1.755a19.573,19.573,0,0,1,6.272-.423A16.151,16.151,0,0,1,36.66-41.73a13.514,13.514,0,0,1,4.517,3.9,8.416,8.416,0,0,1,1.528,4.193A9.1,9.1,0,0,1,42.12-29.7a10,10,0,0,1-1.982,2.99,34.856,34.856,0,0,1-3.38,3.25,39.225,39.225,0,0,1-3.965,2.958,22.983,22.983,0,0,1-3.8,2.047q-1.625.78-3.575,1.528T21.58-15.6a10.285,10.285,0,0,1-2.47.26,6.661,6.661,0,0,1-2.145-.26l-1.1,2.4q-.65,2.34-2.243,6.955T9.945,3.9ZM35.75,4.94a3.861,3.861,0,0,1-1.528.13,5.584,5.584,0,0,1-2.5-1.04A42.6,42.6,0,0,1,26-.065a60.989,60.989,0,0,1-6.435-6.5A16.958,16.958,0,0,1,17.42-9.717q-.78-1.528-1.82-4l-.91-3.51,2.21-1.43,2.73,2.34a27.274,27.274,0,0,0,2.5,4.355,43.388,43.388,0,0,0,2.892,3.7Q26.2-6.89,28.21-4.972A54.543,54.543,0,0,0,32.5-1.3a25.81,25.81,0,0,0,4.1,2.665,1.208,1.208,0,0,1,.26,1.17,5.666,5.666,0,0,1-.487,1.592Q36.01,4.875,35.75,4.94ZM19.24-20.085a14.339,14.339,0,0,0,3.38-.78q1.885-.65,3.9-1.5,1.885-.91,3.8-2.047a24.9,24.9,0,0,0,3.543-2.535,13.076,13.076,0,0,0,2.6-2.958,5.251,5.251,0,0,0,.845-3.25A3.9,3.9,0,0,0,36.757-35a6.993,6.993,0,0,0-1.4-1.787,4.481,4.481,0,0,0-1.69-1.04,32.494,32.494,0,0,0-4.1-.812,3.321,3.321,0,0,0-2.21.325,2.921,2.921,0,0,0-1.04,1.788,5.5,5.5,0,0,1-.52,1.267q-.52,1.073-1.267,2.665t-1.463,3.413L20.28-23.5A20.819,20.819,0,0,0,19.175-21Q18.98-20.345,19.24-20.085ZM42.12-1.43a3.02,3.02,0,0,1-.748-1.463,6.178,6.178,0,0,1-.162-1.885,3.955,3.955,0,0,1,.325-1.463,1.687,1.687,0,0,1,.162-.812.745.745,0,0,0,.1-.553,2.007,2.007,0,0,1,.13-.91q.2-.65.39-1.235.455-1.04,1.007-2.633t1.1-3.217q.553-1.625.91-2.828t.422-1.462q0-.78,1.04-.845a1.743,1.743,0,0,1,1.658.423,6.552,6.552,0,0,1,1.528,1.722,1.59,1.59,0,0,1,.39,1.43,9.74,9.74,0,0,1-.845,2.47,12.233,12.233,0,0,0-.618,1.658,14.647,14.647,0,0,0-.487,1.917q-.26.52-.618,1.462T47.19-7.865a5.961,5.961,0,0,0-.26,1.1q-.13.78-.325,1.625a4.493,4.493,0,0,1-.52,1.365Q45.5-1.105,44.362-.65A1.938,1.938,0,0,1,42.12-1.43Zm6.76-26.2a3.117,3.117,0,0,1-.91-1.137,3.418,3.418,0,0,1-.358-1.268q-.033-.585.1-.65a5.736,5.736,0,0,0,1.17-1.658,17.222,17.222,0,0,0,.91-2.047,2.235,2.235,0,0,1,.292-.52.891.891,0,0,1,.487-.39,1.942,1.942,0,0,1,1.95,0,4.009,4.009,0,0,1,1.82,1.56,3.74,3.74,0,0,1,.357,2.373A6.208,6.208,0,0,1,53.3-28.8,3.927,3.927,0,0,1,51.057-27.2,2.456,2.456,0,0,1,48.88-27.625ZM57.915.325A10.11,10.11,0,0,1,54.99-1.4a2.529,2.529,0,0,1-1.04-1.657,1.28,1.28,0,0,1,.358-.748,2.007,2.007,0,0,1,1.365-.26,23.988,23.988,0,0,1,3.412.487,14.535,14.535,0,0,0,1.593-.1,15.973,15.973,0,0,0,1.625-.26,2.1,2.1,0,0,0,1.007-.423q.325-.065.195-.293a1.837,1.837,0,0,0-.455-.488,1.732,1.732,0,0,0-.585-.39,1.6,1.6,0,0,0-.585-.13,1.258,1.258,0,0,0-.553-.682A7.89,7.89,0,0,0,60.19-7.02q-1.43-1.17-2.535-2.112t-.845-1.333v-.325q-.455,0-.91-1.267a6.894,6.894,0,0,1-.455-2.307,6.412,6.412,0,0,1,.52-2.437,12.641,12.641,0,0,1,1.365-2.47,15.931,15.931,0,0,1,1.755-2.113q1.17-1.1,2.7-2.307A24.434,24.434,0,0,1,65-25.837a14.894,14.894,0,0,1,3.38-1.4,8.81,8.81,0,0,1,2.145-.26,3.046,3.046,0,0,1,1.69.39,1.628,1.628,0,0,1,1.3.39,7.641,7.641,0,0,1,1.365,1.3,6.731,6.731,0,0,1,.975,1.5q0,.78-.065,1.852a14.043,14.043,0,0,1-.228,1.885q-.162.812-.618.812l-.162.032q-.162.033-.162.358a2.253,2.253,0,0,1-.975,1.5A10.9,10.9,0,0,1,71.37-16.25q-1.04.39-1.5-.195-.325-.26-.585-.488t-.52-.487l-.163-.26a1.081,1.081,0,0,1-.162-.585.737.737,0,0,1,.195-.488l.195-.227a6.173,6.173,0,0,0,1.2-1.3,8.3,8.3,0,0,0,.78-1.4,2.937,2.937,0,0,0,.292-1.008q0-.39-.162-.455a2.242,2.242,0,0,0-.683-.065,9.919,9.919,0,0,0-1.658.682q-1.137.553-2.307,1.268a12.773,12.773,0,0,0-1.755,1.235q-.26.455-.357.585a.422.422,0,0,1-.357.13q0-.26-.357.13t-.845,1.04q-.488.65-.975,1.365t-.747,1.1q-.13.455-.325.975a2.161,2.161,0,0,0-.13,1.04,1.436,1.436,0,0,0,.423,1.2q.488.487,1.592,1.4,2.275,1.69,3.478,2.7a14.812,14.812,0,0,1,1.722,1.625,2.876,2.876,0,0,1,.65,1.2,3.451,3.451,0,0,1,.39,3.348,4.937,4.937,0,0,1-2.47,2.113,8.562,8.562,0,0,1-2.21.585,17.893,17.893,0,0,1-3.283.227A9.156,9.156,0,0,1,57.915.325Zm39.65-1.69a5.02,5.02,0,0,1-3.088.52A3.506,3.506,0,0,1,92.105-2.5a7.184,7.184,0,0,1-.91-3.932,17.006,17.006,0,0,1,.13-1.852,23.1,23.1,0,0,1,.422-2.438,25.537,25.537,0,0,1,.683-2.47,6.938,6.938,0,0,1,.455-1.073q.26-.487,0-.488a1.008,1.008,0,0,0-.618.325q-.358.325-.552.52a34.237,34.237,0,0,0-2.958,2.925,35.065,35.065,0,0,0-2.5,3.12,19.6,19.6,0,0,0-1.723,2.86,5.232,5.232,0,0,0-.618,2.08A1.382,1.382,0,0,1,82.94-1.56a1.774,1.774,0,0,1-1.69-.065,5.54,5.54,0,0,1-2.015-2.047A6.391,6.391,0,0,1,78.65-7.41q.195-3.055.52-5.46A43.3,43.3,0,0,1,80.243-18.1q.748-2.828,1.982-6.923.845-2.275,1.56-4.323t1.268-3.478q.552-1.43.682-1.755a5.672,5.672,0,0,0,.845-1.592q.52-1.267.942-2.568a8.487,8.487,0,0,0,.423-1.56,1.773,1.773,0,0,1,.228-.91q.227-.39.423-.715a4.246,4.246,0,0,1,.585-1.007.7.7,0,0,1,.455-.293,2.694,2.694,0,0,1,.975.293,8.211,8.211,0,0,1,1.268.715,1.677,1.677,0,0,1,.747.943,4.452,4.452,0,0,1,.488,1.852,6.117,6.117,0,0,1-.488,2.308,34.229,34.229,0,0,1-1.82,3.77,45.123,45.123,0,0,0-1.885,4.16q-.845,2.145-1.625,4.485-.325.975-.845,2.632t-1.04,3.38q-.52,1.722-.845,3.088a10.324,10.324,0,0,0-.325,1.755q0,.455.52.423a1.517,1.517,0,0,0,1.04-.748,3.935,3.935,0,0,1,.91-1.1q.65-.585,1.17-1.105.52-.585,1.3-1.43T90.9-19.5a16.973,16.973,0,0,1,1.755-1.4,2.592,2.592,0,0,1,1.333-.552,2.764,2.764,0,0,1,1.885.683,5.152,5.152,0,0,1,1.3,1.917,3.2,3.2,0,0,1,.39.488,4.612,4.612,0,0,1,.26.423q.325.26.228,2.112a20.124,20.124,0,0,1-1.138,4.972q-.585,2.405-.78,3.737t.325,1.332l.682-.39q.683-.39,1.463-.845a4.287,4.287,0,0,1,2.925-1.008q1.04.228,1.04.943a2.227,2.227,0,0,1-.357,1.072,2.177,2.177,0,0,0-.357.878v.325q0,.13-.845.91T99.158-2.308A4.481,4.481,0,0,1,97.565-1.365Zm13.325.65a2.964,2.964,0,0,1-2.34-1.593,8.392,8.392,0,0,1-1.235-3.412q.065-.52.162-1.5t.228-2.015q.26-1.235.747-3.12t.975-3.835q.487-1.95.877-3.348t.455-1.657q.39-.78,1.528-.39a4.1,4.1,0,0,1,1.982,1.56,2.606,2.606,0,0,1,.488,1.235,6.526,6.526,0,0,1-.2,2.08q-.292,1.365-1.072,4.03-.715,2.6-1.073,4.192a13.027,13.027,0,0,0-.293,3.347,28.763,28.763,0,0,1-.487,3.608Q111.41-.65,110.89-.715Zm6.5-26.65a.662.662,0,0,1-.487.162,2.374,2.374,0,0,1-.747-.357,2.691,2.691,0,0,1-1.138-.585,6.491,6.491,0,0,1-1.17-1.138,2.427,2.427,0,0,1-.488-.747,9.533,9.533,0,0,1,.1-1.95,7.915,7.915,0,0,1,.682-2.4,1.769,1.769,0,0,1,1.5-1.17,3.785,3.785,0,0,1,.91.195q.65.2,1.625.585a16.445,16.445,0,0,1,1.008,2.405,5.405,5.405,0,0,1,.227,2.795A3.226,3.226,0,0,1,117.39-27.365Z" transform="translate(-5.092 43.602)" fill="#fdfdff"/></svg>